<svg xmlns="http://www.w3.org/2000/svg" viewBox="0 0 400 300">
  <defs>
    <linearGradient id="skyGradient" x1="0%" y1="0%" x2="0%" y2="100%">
      <stop offset="0%" style="stop-color:#1A2980"/>
      <stop offset="50%" style="stop-color:#4EBCCD"/>
      <stop offset="100%" style="stop-color:#F8F9FA"/>
    </linearGradient>
    <linearGradient id="volcanoGradient" x1="0%" y1="0%" x2="100%" y2="100%">
      <stop offset="0%" style="stop-color:#FF8E8E"/>
      <stop offset="50%" style="stop-color:#FF6B6B"/>
      <stop offset="100%" style="stop-color:#C04848"/>
    </linearGradient>
    <radialGradient id="glowGradient" cx="50%" cy="50%" r="50%" fx="50%" fy="50%">
      <stop offset="0%" style="stop-color:#FEEB9D;stop-opacity:0.7" />
      <stop offset="100%" style="stop-color:#FEEB9D;stop-opacity:0" />
    </radialGradient>
    <filter id="glow">
      <feGaussianBlur stdDeviation="2.5" result="coloredBlur"/>
      <feMerge>
        <feMergeNode in="coloredBlur"/>
        <feMergeNode in="SourceGraphic"/>
      </feMerge>
    </filter>
  </defs>
  
  <style>
    @keyframes float {
      0%, 100% { transform: translate(0, 0) rotate(0deg); }
      25% { transform: translate(2px, -2px) rotate(1deg); }
      50% { transform: translate(0, -3px) rotate(0deg); }
      75% { transform: translate(-2px, -2px) rotate(-1deg); }
    }
    .floating { animation: float 10s infinite ease-in-out; }
    @keyframes twinkle {
      0%, 100% { opacity: 0.2; transform: scale(1); }
      50% { opacity: 1; transform: scale(1.2); }
    }
    .star { animation: twinkle 10s infinite ease-in-out; }
    @keyframes pulse {
      0%, 100% { transform: scale(1); opacity: 0.8; }
      50% { transform: scale(1.05); opacity: 1; }
    }
    .pulsing { animation: pulse 30s infinite ease-in-out; }
    @keyframes dance {
      0%, 100% { transform: translateY(0); }
      25% { transform: translateY(-2px) translateX(1px); }
      50% { transform: translateY(0) translateX(-1px); }
      75% { transform: translateY(2px) translateX(1px); }
    }
    .dancing { animation: dance 8s infinite ease-in-out; }
  </style>
  
  <!-- Magical sky background -->
  <rect width="400" height="300" fill="url(#skyGradient)"/>
  
  <!-- Stars -->
  <g class="star">
    <circle cx="50" cy="50" r="1" fill="#FEEB9D"/>
    <circle cx="100" cy="30" r="1.5" fill="#FEEB9D"/>
    <circle cx="300" cy="70" r="1" fill="#FEEB9D"/>
    <circle cx="350" cy="40" r="1.5" fill="#FEEB9D"/>
    <circle cx="200" cy="20" r="2" fill="#FEEB9D"/>
  </g>
  
  <!-- Ethereal clouds -->
  <path d="M320,100 Q340,80 360,100 T400,100" fill="#F8F9FA" opacity="0.4" class="floating"/>
  <path d="M-20,80 Q0,60 20,80 T60,80" fill="#F8F9FA" opacity="0.4" class="floating"/>
  
  <!-- Majestic Cotopaxi -->
  <path d="M0,300 Q100,200 150,170 L200,110 L250,150 Q300,180 400,300 Z" fill="url(#volcanoGradient)"/>
  
  <!-- Glow effect -->
  <circle cx="200" cy="110" r="60" fill="url(#glowGradient)" class="pulsing" filter="url(#glow)"/>
  
  <!-- Mystical snow cap -->
  <path d="M150,170 Q175,140 200,110 Q225,140 250,150 Q225,145 200,130 Q175,145 150,170 Z" fill="#FEEB9D" opacity="0.9"/>
  
  <!-- Ethereal mist -->
  <path d="M50,225 Q200,215 350,225" stroke="#4EBCCD" stroke-width="1" fill="none" opacity="0.4" class="floating"/>
  <path d="M100,260 Q200,250 300,260" stroke="#4EBCCD" stroke-width="1" fill="none" opacity="0.4" class="floating"/>
  
  <!-- Reflection in the mystical lake -->
  <path d="M0,300 Q200,290 400,300 L400,330 Q200,310 0,330 Z" fill="#4EBCCD" opacity="0.3"/>
  
  <!-- Enchanted children -->
  <g class="dancing" stroke="#FEEB9D" stroke-width="1" fill="none" opacity="0.8" filter="url(#glow)">
    <path d="M50,280 C55,270 65,270 70,280 M60,270 C60,275 60,280 60,285 M55,273 C58,276 62,276 65,273"/>
    <path d="M80,280 C85,270 95,270 100,280 M90,270 C90,275 90,280 90,285 M85,273 C88,276 92,276 95,273"/>
  </g>
  
  <!-- Mythical dragon -->
  <path class="floating" d="M280,220 Q300,190 320,220 Q340,250 360,220 M320,220 Q330,200 340,210 M320,220 Q310,200 300,210" 
        stroke="#6C5CE7" stroke-width="1.5" fill="none" opacity="0.8" filter="url(#glow)"/>
</svg>